<?xml version="1.0" encoding="UTF-8" standalone="no"?> <!-- Created with Vectornator for iOS (http://vectornator.io/) --><!DOCTYPE svg PUBLIC "-//W3C//DTD SVG 1.1//EN" "http://www.w3.org/Graphics/SVG/1.1/DTD/svg11.dtd">
<svg style="fill-rule:evenodd;clip-rule:evenodd;stroke-linecap:round;stroke-linejoin:round;" xmlns:vectornator="http://vectornator.io" xmlns:xlink="http://www.w3.org/1999/xlink" xmlns="http://www.w3.org/2000/svg" xml:space="preserve" version="1.1" viewBox="0 0 1024 1024">
<metadata>
<vectornator:setting key="DisplayWhiteBackground" value="0"/>
<vectornator:setting key="RulersVisible" value="1"/>
<vectornator:setting key="GridSpacing" value="36"/>
<vectornator:setting key="Units" value="Pixels"/>
<vectornator:setting key="DynamicGuides" value="0"/>
<vectornator:setting key="SnapToPoints" value="0"/>
<vectornator:setting key="SnapToGrid" value="0"/>
<vectornator:setting key="SnapToGuides" value="0"/>
<vectornator:setting key="ShowGrid" value="1"/>
<vectornator:setting key="SnapToEdges" value="0"/>
</metadata>
<defs/>
<g id="Layer 1" vectornator:layerName="Layer 1">
<path stroke="#000000" stroke-width="30.76" d="M141.823+801.9C103.268+741.14+175.391+647.701+175.391+582.512C175.391+517.323+62.3868+436.869+138.036+333.544C185.069+269.304+275.362+312.739+342.533+277.121C431.37+230.013+445.796+163.836+527.271+163.836C627.471+163.836+606.225+258.28+697.472+303.834C783.466+346.766+823.595+324.098+892.695+403.008C929.824+445.41+940.453+553.236+896.547+602.809C836.551+670.547+815.927+702.528+786.276+740.028C731.974+808.704+739.338+848.96+703.456+879.584C669.715+908.382+552.432+922.152+432.504+828.635C322.402+742.78+196.635+888.279+141.823+801.9Z" fill="#ffffff" stroke-linecap="butt" opacity="1" stroke-linejoin="round"/>
<path stroke="#000000" stroke-width="31.48" d="M599.072+408.591C673.468+458.79+692.579+558.27+641.758+630.787C590.937+703.304+489.428+721.396+415.032+671.197C340.636+620.998+321.525+521.517+372.346+449.001C423.167+376.484+524.676+358.392+599.072+408.591Z" fill="#ffc414" stroke-linecap="butt" opacity="1" stroke-linejoin="round"/>
<path d="M457.721+415.921C455.132+415.626+452.645+416.017+450.312+416.763L450.188+416.423C408.108+431.002+376.206+467.52+371.028+513.37C371.003+513.59+371.017+513.804+371.008+514.021C370.788+514.889+370.286+515.623+370.182+516.538C368.96+527.356+376.717+537.136+387.492+538.362C398.267+539.589+408.008+531.802+409.23+520.983C409.247+520.83+409.158+520.695+409.172+520.542L409.76+520.609C410.846+503.644+417.099+486.929+429.205+473.161C438.109+463.034+449.067+455.841+460.923+451.369L460.881+451.256C467.531+449.21+472.712+443.407+473.548+435.999C474.672+426.05+467.585+417.044+457.721+415.921Z" opacity="1" fill="#ffffff"/>
<path d="M374.243+575.752C374.243+563.832+384.091+554.169+396.239+554.169C408.387+554.169+418.235+563.832+418.235+575.752C418.235+587.672+408.387+597.335+396.239+597.335C384.091+597.335+374.243+587.672+374.243+575.752Z" opacity="1" fill="#ffffff"/>
<path d="M588.534+637.232C588.534+635.638+589.851+634.345+591.476+634.345C593.1+634.345+594.418+635.638+594.418+637.232C594.418+638.826+593.1+640.119+591.476+640.119C589.851+640.119+588.534+638.826+588.534+637.232Z" opacity="1" fill="#ffab00"/>
<path d="M602.84+612.347C602.84+608.813+605.76+605.948+609.362+605.948C612.964+605.948+615.884+608.813+615.884+612.347C615.884+615.882+612.964+618.747+609.362+618.747C605.76+618.747+602.84+615.882+602.84+612.347Z" opacity="1" fill="#ffab00"/>
<path d="M605.951+629.793C605.951+627.942+607.412+626.442+609.214+626.442C611.016+626.442+612.477+627.942+612.477+629.793C612.477+631.643+611.016+633.144+609.214+633.144C607.412+633.144+605.951+631.643+605.951+629.793Z" opacity="1" fill="#ffab00"/>
</g>
</svg>
